<svg viewBox="0 0 24 24" fill="currentColor" width="40" height="40" data-ux="IconSocial"
    class="x-el x-el-svg c1-1 c1-2 c1-52 c1-5v c1-5y c1-bg c1-bh c1-bi c1-b c1-c c1-bj c1-bk c1-d c1-bl c1-bm c1-bn c1-bo c1-bp c1-bq c1-br c1-bs c1-e c1-f c1-g">
    <g>
        <path
            d="M20 12a8 8 0 10-9.25 7.903v-5.59H8.719V12h2.031v-1.762c0-2.005 1.194-3.113 3.022-3.113.875 0 1.79.156 1.79.156V9.25h-1.008c-.994 0-1.304.617-1.304 1.25V12h2.219l-.355 2.313H13.25v5.59A8.002 8.002 0 0020 12z"
            fill="#1877F2"></path>
        <path
            d="M15.114 14.313L15.47 12h-2.22v-1.5c0-.633.31-1.25 1.304-1.25h1.008V7.281s-.915-.156-1.79-.156c-1.828 0-3.022 1.107-3.022 3.113V12H8.719v2.313h2.031v5.59c.828.13 1.672.13 2.5 0v-5.59h1.864z"
            fill="#fff"></path>
    </g>
</svg>